<mxfile host="app.diagrams.net" modified="2023-09-18T15:14:24.518Z" agent="Mozilla/5.0 (Windows NT 10.0; Win64; x64) AppleWebKit/537.36 (KHTML, like Gecko) Chrome/117.0.0.0 Safari/537.36" etag="ftXIc_wwMsJC48yDf1Y8" version="21.7.5" type="github">
  <diagram name="Page-1" id="1BbMc71bs907q14WTnRx">
    <mxGraphModel dx="2284" dy="758" grid="1" gridSize="10" guides="1" tooltips="1" connect="1" arrows="1" fold="1" page="1" pageScale="1" pageWidth="850" pageHeight="1100" math="0" shadow="0">
      <root>
        <mxCell id="0" />
        <mxCell id="1" parent="0" />
        <mxCell id="F9PEpaD-1l_39SftCYCo-13" style="rounded=0;orthogonalLoop=1;jettySize=auto;html=1;endArrow=none;endFill=0;" edge="1" parent="1" source="F9PEpaD-1l_39SftCYCo-1" target="F9PEpaD-1l_39SftCYCo-7">
          <mxGeometry relative="1" as="geometry" />
        </mxCell>
        <mxCell id="F9PEpaD-1l_39SftCYCo-31" style="edgeStyle=none;shape=connector;rounded=0;orthogonalLoop=1;jettySize=auto;html=1;labelBackgroundColor=default;strokeColor=default;fontFamily=Helvetica;fontSize=11;fontColor=default;endArrow=none;endFill=0;" edge="1" parent="1" source="F9PEpaD-1l_39SftCYCo-1" target="F9PEpaD-1l_39SftCYCo-30">
          <mxGeometry relative="1" as="geometry" />
        </mxCell>
        <mxCell id="F9PEpaD-1l_39SftCYCo-36" style="edgeStyle=none;shape=connector;rounded=0;orthogonalLoop=1;jettySize=auto;html=1;entryX=0.5;entryY=0;entryDx=0;entryDy=0;labelBackgroundColor=default;strokeColor=default;fontFamily=Helvetica;fontSize=11;fontColor=default;endArrow=none;endFill=0;" edge="1" parent="1" source="F9PEpaD-1l_39SftCYCo-1" target="F9PEpaD-1l_39SftCYCo-35">
          <mxGeometry relative="1" as="geometry" />
        </mxCell>
        <mxCell id="F9PEpaD-1l_39SftCYCo-41" style="edgeStyle=none;shape=connector;rounded=0;orthogonalLoop=1;jettySize=auto;html=1;entryX=0.04;entryY=0.614;entryDx=0;entryDy=0;entryPerimeter=0;labelBackgroundColor=default;strokeColor=default;fontFamily=Helvetica;fontSize=11;fontColor=default;endArrow=none;endFill=0;" edge="1" parent="1" source="F9PEpaD-1l_39SftCYCo-1" target="F9PEpaD-1l_39SftCYCo-40">
          <mxGeometry relative="1" as="geometry" />
        </mxCell>
        <mxCell id="F9PEpaD-1l_39SftCYCo-46" style="edgeStyle=none;shape=connector;rounded=0;orthogonalLoop=1;jettySize=auto;html=1;labelBackgroundColor=default;strokeColor=default;fontFamily=Helvetica;fontSize=11;fontColor=default;endArrow=none;endFill=0;" edge="1" parent="1" source="F9PEpaD-1l_39SftCYCo-1" target="F9PEpaD-1l_39SftCYCo-45">
          <mxGeometry relative="1" as="geometry" />
        </mxCell>
        <mxCell id="F9PEpaD-1l_39SftCYCo-51" style="edgeStyle=none;shape=connector;rounded=0;orthogonalLoop=1;jettySize=auto;html=1;entryX=0.309;entryY=0.135;entryDx=0;entryDy=0;entryPerimeter=0;labelBackgroundColor=default;strokeColor=default;fontFamily=Helvetica;fontSize=11;fontColor=default;endArrow=none;endFill=0;" edge="1" parent="1" source="F9PEpaD-1l_39SftCYCo-1" target="F9PEpaD-1l_39SftCYCo-50">
          <mxGeometry relative="1" as="geometry" />
        </mxCell>
        <mxCell id="F9PEpaD-1l_39SftCYCo-1" value="&lt;b&gt;MOVIE&lt;/b&gt;" style="rounded=1;whiteSpace=wrap;html=1;" vertex="1" parent="1">
          <mxGeometry x="80" y="560" width="120" height="60" as="geometry" />
        </mxCell>
        <mxCell id="F9PEpaD-1l_39SftCYCo-28" style="edgeStyle=none;shape=connector;rounded=0;orthogonalLoop=1;jettySize=auto;html=1;entryX=1;entryY=0.5;entryDx=0;entryDy=0;labelBackgroundColor=default;strokeColor=default;fontFamily=Helvetica;fontSize=11;fontColor=default;endArrow=none;endFill=0;" edge="1" parent="1" source="F9PEpaD-1l_39SftCYCo-2" target="F9PEpaD-1l_39SftCYCo-22">
          <mxGeometry relative="1" as="geometry" />
        </mxCell>
        <mxCell id="F9PEpaD-1l_39SftCYCo-29" style="edgeStyle=none;shape=connector;rounded=0;orthogonalLoop=1;jettySize=auto;html=1;labelBackgroundColor=default;strokeColor=default;fontFamily=Helvetica;fontSize=11;fontColor=default;endArrow=none;endFill=0;" edge="1" parent="1" source="F9PEpaD-1l_39SftCYCo-2" target="F9PEpaD-1l_39SftCYCo-23">
          <mxGeometry relative="1" as="geometry" />
        </mxCell>
        <mxCell id="F9PEpaD-1l_39SftCYCo-2" value="&lt;b&gt;DIRECTOR&lt;/b&gt;" style="rounded=1;whiteSpace=wrap;html=1;" vertex="1" parent="1">
          <mxGeometry x="80" y="830" width="120" height="60" as="geometry" />
        </mxCell>
        <mxCell id="F9PEpaD-1l_39SftCYCo-26" style="edgeStyle=none;shape=connector;rounded=0;orthogonalLoop=1;jettySize=auto;html=1;entryX=0.5;entryY=0;entryDx=0;entryDy=0;labelBackgroundColor=default;strokeColor=default;fontFamily=Helvetica;fontSize=11;fontColor=default;endArrow=none;endFill=0;" edge="1" parent="1" source="F9PEpaD-1l_39SftCYCo-3" target="F9PEpaD-1l_39SftCYCo-25">
          <mxGeometry relative="1" as="geometry" />
        </mxCell>
        <mxCell id="F9PEpaD-1l_39SftCYCo-27" style="edgeStyle=none;shape=connector;rounded=0;orthogonalLoop=1;jettySize=auto;html=1;entryX=0.678;entryY=0.025;entryDx=0;entryDy=0;entryPerimeter=0;labelBackgroundColor=default;strokeColor=default;fontFamily=Helvetica;fontSize=11;fontColor=default;endArrow=none;endFill=0;" edge="1" parent="1" source="F9PEpaD-1l_39SftCYCo-3" target="F9PEpaD-1l_39SftCYCo-24">
          <mxGeometry relative="1" as="geometry" />
        </mxCell>
        <mxCell id="F9PEpaD-1l_39SftCYCo-3" value="&lt;b&gt;PRODUCTION COMPANY&lt;/b&gt;" style="rounded=1;whiteSpace=wrap;html=1;" vertex="1" parent="1">
          <mxGeometry x="450" y="830" width="120" height="60" as="geometry" />
        </mxCell>
        <mxCell id="F9PEpaD-1l_39SftCYCo-20" style="edgeStyle=none;shape=connector;rounded=0;orthogonalLoop=1;jettySize=auto;html=1;labelBackgroundColor=default;strokeColor=default;fontFamily=Helvetica;fontSize=11;fontColor=default;endArrow=none;endFill=0;" edge="1" parent="1" source="F9PEpaD-1l_39SftCYCo-4" target="F9PEpaD-1l_39SftCYCo-18">
          <mxGeometry relative="1" as="geometry" />
        </mxCell>
        <mxCell id="F9PEpaD-1l_39SftCYCo-4" value="&lt;b&gt;ACTOR&lt;/b&gt;" style="rounded=1;whiteSpace=wrap;html=1;" vertex="1" parent="1">
          <mxGeometry x="450" y="560" width="120" height="60" as="geometry" />
        </mxCell>
        <mxCell id="F9PEpaD-1l_39SftCYCo-14" style="edgeStyle=none;shape=connector;rounded=0;orthogonalLoop=1;jettySize=auto;html=1;labelBackgroundColor=default;strokeColor=default;fontFamily=Helvetica;fontSize=11;fontColor=default;endArrow=none;endFill=0;" edge="1" parent="1" source="F9PEpaD-1l_39SftCYCo-5" target="F9PEpaD-1l_39SftCYCo-1">
          <mxGeometry relative="1" as="geometry" />
        </mxCell>
        <mxCell id="F9PEpaD-1l_39SftCYCo-5" value="Title" style="ellipse;whiteSpace=wrap;html=1;fontStyle=4" vertex="1" parent="1">
          <mxGeometry x="-50" y="520" width="80" height="40" as="geometry" />
        </mxCell>
        <mxCell id="F9PEpaD-1l_39SftCYCo-15" style="edgeStyle=none;shape=connector;rounded=0;orthogonalLoop=1;jettySize=auto;html=1;labelBackgroundColor=default;strokeColor=default;fontFamily=Helvetica;fontSize=11;fontColor=default;endArrow=none;endFill=0;" edge="1" parent="1" source="F9PEpaD-1l_39SftCYCo-6" target="F9PEpaD-1l_39SftCYCo-1">
          <mxGeometry relative="1" as="geometry" />
        </mxCell>
        <mxCell id="F9PEpaD-1l_39SftCYCo-6" value="Year" style="ellipse;whiteSpace=wrap;html=1;fontStyle=4" vertex="1" parent="1">
          <mxGeometry x="-70" y="580" width="80" height="40" as="geometry" />
        </mxCell>
        <mxCell id="F9PEpaD-1l_39SftCYCo-7" value="Length" style="ellipse;whiteSpace=wrap;html=1;" vertex="1" parent="1">
          <mxGeometry x="20" y="480" width="80" height="40" as="geometry" />
        </mxCell>
        <mxCell id="F9PEpaD-1l_39SftCYCo-8" style="edgeStyle=orthogonalEdgeStyle;rounded=0;orthogonalLoop=1;jettySize=auto;html=1;exitX=0.5;exitY=1;exitDx=0;exitDy=0;" edge="1" parent="1" source="F9PEpaD-1l_39SftCYCo-6" target="F9PEpaD-1l_39SftCYCo-6">
          <mxGeometry relative="1" as="geometry" />
        </mxCell>
        <mxCell id="F9PEpaD-1l_39SftCYCo-16" style="edgeStyle=none;shape=connector;rounded=0;orthogonalLoop=1;jettySize=auto;html=1;labelBackgroundColor=default;strokeColor=default;fontFamily=Helvetica;fontSize=11;fontColor=default;endArrow=none;endFill=0;" edge="1" parent="1" source="F9PEpaD-1l_39SftCYCo-10" target="F9PEpaD-1l_39SftCYCo-1">
          <mxGeometry relative="1" as="geometry" />
        </mxCell>
        <mxCell id="F9PEpaD-1l_39SftCYCo-10" value="Genres" style="ellipse;whiteSpace=wrap;html=1;" vertex="1" parent="1">
          <mxGeometry x="-30" y="650" width="80" height="40" as="geometry" />
        </mxCell>
        <mxCell id="F9PEpaD-1l_39SftCYCo-17" style="edgeStyle=none;shape=connector;rounded=0;orthogonalLoop=1;jettySize=auto;html=1;labelBackgroundColor=default;strokeColor=default;fontFamily=Helvetica;fontSize=11;fontColor=default;endArrow=none;endFill=0;" edge="1" parent="1" source="F9PEpaD-1l_39SftCYCo-12" target="F9PEpaD-1l_39SftCYCo-1">
          <mxGeometry relative="1" as="geometry" />
        </mxCell>
        <mxCell id="F9PEpaD-1l_39SftCYCo-12" value="Plot outline" style="ellipse;whiteSpace=wrap;html=1;" vertex="1" parent="1">
          <mxGeometry x="110" y="450" width="80" height="40" as="geometry" />
        </mxCell>
        <mxCell id="F9PEpaD-1l_39SftCYCo-18" value="Name" style="ellipse;whiteSpace=wrap;html=1;fontFamily=Helvetica;fontSize=11;fontColor=default;fontStyle=4" vertex="1" parent="1">
          <mxGeometry x="560" y="470" width="90" height="40" as="geometry" />
        </mxCell>
        <mxCell id="F9PEpaD-1l_39SftCYCo-21" style="edgeStyle=none;shape=connector;rounded=0;orthogonalLoop=1;jettySize=auto;html=1;labelBackgroundColor=default;strokeColor=default;fontFamily=Helvetica;fontSize=11;fontColor=default;endArrow=none;endFill=0;" edge="1" parent="1" source="F9PEpaD-1l_39SftCYCo-19" target="F9PEpaD-1l_39SftCYCo-4">
          <mxGeometry relative="1" as="geometry" />
        </mxCell>
        <mxCell id="F9PEpaD-1l_39SftCYCo-19" value="Date of birth" style="ellipse;whiteSpace=wrap;html=1;fontFamily=Helvetica;fontSize=11;fontColor=default;" vertex="1" parent="1">
          <mxGeometry x="600" y="530" width="90" height="40" as="geometry" />
        </mxCell>
        <mxCell id="F9PEpaD-1l_39SftCYCo-22" value="Name" style="ellipse;whiteSpace=wrap;html=1;fontFamily=Helvetica;fontSize=11;fontColor=default;fontStyle=4" vertex="1" parent="1">
          <mxGeometry x="-80" y="840" width="90" height="40" as="geometry" />
        </mxCell>
        <mxCell id="F9PEpaD-1l_39SftCYCo-23" value="Date of birth" style="ellipse;whiteSpace=wrap;html=1;fontFamily=Helvetica;fontSize=11;fontColor=default;" vertex="1" parent="1">
          <mxGeometry x="-50" y="890" width="90" height="40" as="geometry" />
        </mxCell>
        <mxCell id="F9PEpaD-1l_39SftCYCo-24" value="Name" style="ellipse;whiteSpace=wrap;html=1;fontFamily=Helvetica;fontSize=11;fontColor=default;fontStyle=4" vertex="1" parent="1">
          <mxGeometry x="520" y="910" width="90" height="40" as="geometry" />
        </mxCell>
        <mxCell id="F9PEpaD-1l_39SftCYCo-25" value="Address" style="ellipse;whiteSpace=wrap;html=1;fontFamily=Helvetica;fontSize=11;fontColor=default;" vertex="1" parent="1">
          <mxGeometry x="590" y="860" width="90" height="40" as="geometry" />
        </mxCell>
        <mxCell id="F9PEpaD-1l_39SftCYCo-32" style="edgeStyle=none;shape=connector;rounded=0;orthogonalLoop=1;jettySize=auto;html=1;entryX=0.058;entryY=-0.033;entryDx=0;entryDy=0;entryPerimeter=0;labelBackgroundColor=default;strokeColor=default;fontFamily=Helvetica;fontSize=11;fontColor=default;endArrow=none;endFill=0;" edge="1" parent="1" source="F9PEpaD-1l_39SftCYCo-30" target="F9PEpaD-1l_39SftCYCo-3">
          <mxGeometry relative="1" as="geometry" />
        </mxCell>
        <mxCell id="F9PEpaD-1l_39SftCYCo-30" value="Produce" style="rhombus;whiteSpace=wrap;html=1;fontFamily=Helvetica;fontSize=11;fontColor=default;" vertex="1" parent="1">
          <mxGeometry x="265" y="660" width="70" height="60" as="geometry" />
        </mxCell>
        <mxCell id="F9PEpaD-1l_39SftCYCo-33" value="(1, 1)" style="text;html=1;align=center;verticalAlign=middle;resizable=0;points=[];autosize=1;strokeColor=none;fillColor=none;fontSize=11;fontFamily=Helvetica;fontColor=default;" vertex="1" parent="1">
          <mxGeometry x="215" y="618" width="50" height="30" as="geometry" />
        </mxCell>
        <mxCell id="F9PEpaD-1l_39SftCYCo-34" value="(0, n)" style="text;html=1;align=center;verticalAlign=middle;resizable=0;points=[];autosize=1;strokeColor=none;fillColor=none;fontSize=11;fontFamily=Helvetica;fontColor=default;" vertex="1" parent="1">
          <mxGeometry x="375" y="738" width="50" height="30" as="geometry" />
        </mxCell>
        <mxCell id="F9PEpaD-1l_39SftCYCo-37" style="edgeStyle=none;shape=connector;rounded=0;orthogonalLoop=1;jettySize=auto;html=1;entryX=0.5;entryY=0;entryDx=0;entryDy=0;labelBackgroundColor=default;strokeColor=default;fontFamily=Helvetica;fontSize=11;fontColor=default;endArrow=none;endFill=0;" edge="1" parent="1" source="F9PEpaD-1l_39SftCYCo-35" target="F9PEpaD-1l_39SftCYCo-2">
          <mxGeometry relative="1" as="geometry" />
        </mxCell>
        <mxCell id="F9PEpaD-1l_39SftCYCo-35" value="Direct" style="rhombus;whiteSpace=wrap;html=1;fontFamily=Helvetica;fontSize=11;fontColor=default;" vertex="1" parent="1">
          <mxGeometry x="80" y="690" width="80" height="60" as="geometry" />
        </mxCell>
        <mxCell id="F9PEpaD-1l_39SftCYCo-38" value="(1, n)" style="text;html=1;align=center;verticalAlign=middle;resizable=0;points=[];autosize=1;strokeColor=none;fillColor=none;fontSize=11;fontFamily=Helvetica;fontColor=default;" vertex="1" parent="1">
          <mxGeometry x="85" y="638" width="50" height="30" as="geometry" />
        </mxCell>
        <mxCell id="F9PEpaD-1l_39SftCYCo-39" value="(0, n)" style="text;html=1;align=center;verticalAlign=middle;resizable=0;points=[];autosize=1;strokeColor=none;fillColor=none;fontSize=11;fontFamily=Helvetica;fontColor=default;" vertex="1" parent="1">
          <mxGeometry x="85" y="778" width="50" height="30" as="geometry" />
        </mxCell>
        <mxCell id="F9PEpaD-1l_39SftCYCo-42" style="edgeStyle=none;shape=connector;rounded=0;orthogonalLoop=1;jettySize=auto;html=1;entryX=0;entryY=0.5;entryDx=0;entryDy=0;labelBackgroundColor=default;strokeColor=default;fontFamily=Helvetica;fontSize=11;fontColor=default;endArrow=none;endFill=0;" edge="1" parent="1" source="F9PEpaD-1l_39SftCYCo-40" target="F9PEpaD-1l_39SftCYCo-4">
          <mxGeometry relative="1" as="geometry" />
        </mxCell>
        <mxCell id="F9PEpaD-1l_39SftCYCo-40" value="Have quotable quotes" style="rhombus;whiteSpace=wrap;html=1;fontFamily=Helvetica;fontSize=11;fontColor=default;" vertex="1" parent="1">
          <mxGeometry x="275" y="550" width="100" height="70" as="geometry" />
        </mxCell>
        <mxCell id="F9PEpaD-1l_39SftCYCo-43" value="(1, n)" style="text;html=1;align=center;verticalAlign=middle;resizable=0;points=[];autosize=1;strokeColor=none;fillColor=none;fontSize=11;fontFamily=Helvetica;fontColor=default;" vertex="1" parent="1">
          <mxGeometry x="205" y="558" width="50" height="30" as="geometry" />
        </mxCell>
        <mxCell id="F9PEpaD-1l_39SftCYCo-44" value="(0, n)" style="text;html=1;align=center;verticalAlign=middle;resizable=0;points=[];autosize=1;strokeColor=none;fillColor=none;fontSize=11;fontFamily=Helvetica;fontColor=default;" vertex="1" parent="1">
          <mxGeometry x="385" y="558" width="50" height="30" as="geometry" />
        </mxCell>
        <mxCell id="F9PEpaD-1l_39SftCYCo-47" style="edgeStyle=none;shape=connector;rounded=0;orthogonalLoop=1;jettySize=auto;html=1;entryX=0.183;entryY=-0.033;entryDx=0;entryDy=0;entryPerimeter=0;labelBackgroundColor=default;strokeColor=default;fontFamily=Helvetica;fontSize=11;fontColor=default;endArrow=none;endFill=0;" edge="1" parent="1" source="F9PEpaD-1l_39SftCYCo-45" target="F9PEpaD-1l_39SftCYCo-4">
          <mxGeometry relative="1" as="geometry" />
        </mxCell>
        <mxCell id="F9PEpaD-1l_39SftCYCo-45" value="Have a role" style="rhombus;whiteSpace=wrap;html=1;fontFamily=Helvetica;fontSize=11;fontColor=default;" vertex="1" parent="1">
          <mxGeometry x="292.5" y="460" width="65" height="60" as="geometry" />
        </mxCell>
        <mxCell id="F9PEpaD-1l_39SftCYCo-48" value="(1, 1)" style="text;html=1;align=center;verticalAlign=middle;resizable=0;points=[];autosize=1;strokeColor=none;fillColor=none;fontSize=11;fontFamily=Helvetica;fontColor=default;" vertex="1" parent="1">
          <mxGeometry x="225" y="498" width="50" height="30" as="geometry" />
        </mxCell>
        <mxCell id="F9PEpaD-1l_39SftCYCo-49" value="(1, n)" style="text;html=1;align=center;verticalAlign=middle;resizable=0;points=[];autosize=1;strokeColor=none;fillColor=none;fontSize=11;fontFamily=Helvetica;fontColor=default;" vertex="1" parent="1">
          <mxGeometry x="375" y="498" width="50" height="30" as="geometry" />
        </mxCell>
        <mxCell id="F9PEpaD-1l_39SftCYCo-52" style="edgeStyle=none;shape=connector;rounded=0;orthogonalLoop=1;jettySize=auto;html=1;entryX=0.75;entryY=0;entryDx=0;entryDy=0;labelBackgroundColor=default;strokeColor=default;fontFamily=Helvetica;fontSize=11;fontColor=default;endArrow=none;endFill=0;" edge="1" parent="1" source="F9PEpaD-1l_39SftCYCo-50" target="F9PEpaD-1l_39SftCYCo-2">
          <mxGeometry relative="1" as="geometry" />
        </mxCell>
        <mxCell id="F9PEpaD-1l_39SftCYCo-50" value="Act" style="rhombus;whiteSpace=wrap;html=1;fontFamily=Helvetica;fontSize=11;fontColor=default;" vertex="1" parent="1">
          <mxGeometry x="170" y="698" width="55" height="52" as="geometry" />
        </mxCell>
        <mxCell id="F9PEpaD-1l_39SftCYCo-53" value="(0, n)" style="text;html=1;align=center;verticalAlign=middle;resizable=0;points=[];autosize=1;strokeColor=none;fillColor=none;fontSize=11;fontFamily=Helvetica;fontColor=default;" vertex="1" parent="1">
          <mxGeometry x="175" y="790" width="50" height="30" as="geometry" />
        </mxCell>
        <mxCell id="F9PEpaD-1l_39SftCYCo-54" value="(1, n)" style="text;html=1;align=center;verticalAlign=middle;resizable=0;points=[];autosize=1;strokeColor=none;fillColor=none;fontSize=11;fontFamily=Helvetica;fontColor=default;" vertex="1" parent="1">
          <mxGeometry x="165" y="648" width="50" height="30" as="geometry" />
        </mxCell>
      </root>
    </mxGraphModel>
  </diagram>
</mxfile>
